g PantallaCentro_Geo
v -0.1934076 0.2471021 0.001839983
v -0.1934076 0.1736369 0.001839983
v 0.1413441 0.1736369 -0.00134467
v 0.1413439 0.2471021 -0.001344674
v 0.1413441 -0.1736369 -0.001344665
v -0.1934076 -0.1736369 0.001839983
v 0.1413441 -0.2471021 -0.001344665
v -0.1934076 -0.2471021 0.001839983
v 0.1934074 0.1736369 -0.001839975
v 0.1934075 -0.1736369 -0.00183997

vn -0.009513045 0 0.9999548
vn -0.009513022 0 0.9999548
vn -0.009513017 0 0.9999548
vn -0.009513046 0 0.9999548
vn -0.009513015 0 0.9999548
vn -0.009513019 0 0.9999548
vn -0.009513027 0 0.9999548
vn -0.009513027 0 0.9999548
vn -0.009512975 0 0.9999548
vn -0.009512976 0 0.9999548

vt 0.008051386 0.995102
vt 0.1532745 0.9951023
vt 0.1532842 0.1357329
vt 0.008029601 0.1357208
vt 0.851676 0.1356842
vt 0.8517011 0.9951023
vt 0.996886 0.1357334
vt 0.9969496 0.9951021
vt 0.1533039 0.005938725
vt 0.8516093 0.006003902

usemtl PantallaCentro_M
usemap PantallaCentro_M
f 1/1/1 2/2/2 3/3/3
f 1/1/1 3/3/3 4/4/4
f 2/2/2 5/5/5 3/3/3
f 2/2/2 6/6/6 5/5/5
f 6/6/6 7/7/7 5/5/5
f 6/6/6 8/8/8 7/7/7
f 5/5/5 9/9/9 3/3/3
f 5/5/5 10/10/10 9/9/9
