g PantallaIzq_Geo
v 0.1934076 -0.09861483 2.861023E-08
v 0.181376 -0.1080227 -5.722046E-08
v 0.1423259 0.1002741 1.24345E-16
v 0.1934076 0.07886881 8.583068E-08
v 0.08148224 -0.1256828 1.907349E-08
v 0.06429352 0.1002741 3.814697E-08
v 0.142326 0.1256825 3.051758E-07
v 0.06429306 0.1256828 -1.716614E-07
v 0.06753097 -0.1048972 1.24345E-16
v 0.05339508 0.100274 1.716614E-07
v -0.06165512 -0.1048972 3.814697E-08
v -0.04964645 0.100274 1.907349E-07
v 0.05339523 0.1256827 -5.722046E-08
v -0.04964599 0.1256827 -3.814697E-08
v -0.07560653 -0.1256828 7.629394E-08
v -0.06100372 0.100274 -1.144409E-07
v -0.1755003 -0.1080227 -7.629394E-08
v -0.142326 0.1002742 -3.814697E-08
v -0.1934076 -0.09861483 3.814697E-08
v -0.1934076 0.07886881 7.629394E-08
v -0.06100403 0.1256827 -3.051758E-07
v -0.1423256 0.1256826 2.670288E-07

vn -2.715728E-06 5.831843E-07 -1
vn -2.715729E-06 5.831843E-07 -1
vn -2.715729E-06 5.831843E-07 -1
vn -2.715728E-06 5.831843E-07 -1
vn 6.239354E-07 0 -1
vn 6.239354E-07 0 -1
vn -2.789792E-06 1.87667E-06 -1
vn -2.789792E-06 1.87667E-06 -1
vn 1.921503E-07 7.889138E-07 -1
vn 1.921503E-07 7.889137E-07 -1
vn 1.921503E-07 7.889139E-07 -1
vn 1.921503E-07 7.889139E-07 -1
vn 2.185531E-07 -9.007997E-06 -1
vn 2.185531E-07 -9.007997E-06 -1
vn -3.069502E-07 -3.934813E-07 -1
vn -3.069502E-07 -3.934813E-07 -1
vn 3.492177E-06 4.903947E-07 -1
vn 3.492177E-06 4.903947E-07 -1
vn 3.492177E-06 4.903947E-07 -1
vn 3.492177E-06 4.903947E-07 -1
vn 4.061584E-06 2.252031E-06 -1
vn 4.061584E-06 2.252031E-06 -1

vt 0.2741413 0.008139998
vt 0.253284 0.03925481
vt 0.7150757 0.1319695
vt 0.6676204 0.001992017
vt 0.2141321 0.2954969
vt 0.7150757 0.3316558
vt 0.7714063 0.1310892
vt 0.7714062 0.3307769
vt 0.2602133 0.3304783
vt 0.7150757 0.3595451
vt 0.2602133 0.6610682
vt 0.7150756 0.6232306
vt 0.7714062 0.3586647
vt 0.7714062 0.6223494
vt 0.214132 0.6974902
vt 0.7150753 0.6522942
vt 0.2532839 0.9525087
vt 0.7150756 0.8603992
vt 0.2741411 0.9980079
vt 0.6676203 0.9918597
vt 0.7714057 0.6514145
vt 0.7714062 0.859518

usemtl PantallaIzq_M
usemap PantallaIzq_M
f 1/1/1 2/2/2 3/3/3
f 1/1/1 3/3/3 4/4/4
f 3/3/3 2/2/2 5/5/5
f 3/3/3 5/5/5 6/6/6
f 7/7/7 3/3/3 6/6/6
f 7/7/7 6/6/6 8/8/8
f 6/6/6 5/5/5 9/9/9
f 6/6/6 9/9/9 10/10/10
f 8/8/8 6/6/6 10/10/10
f 10/10/10 9/9/9 11/11/11
f 10/10/10 11/11/11 12/12/12
f 13/13/13 10/10/10 12/12/12
f 8/8/8 10/10/10 13/13/13
f 13/13/13 12/12/12 14/14/14
f 15/15/15 12/12/12 11/11/11
f 15/15/15 16/16/16 12/12/12
f 16/16/16 14/14/14 12/12/12
f 17/17/17 16/16/16 15/15/15
f 17/17/17 18/18/18 16/16/16
f 18/18/18 17/17/17 19/19/19
f 18/18/18 19/19/19 20/20/20
f 18/18/18 21/21/21 16/16/16
f 16/16/16 21/21/21 14/14/14
f 18/18/18 22/22/22 21/21/21
