g pCube20
v 0.01330208 0.0334269 0.03862838
v 0.1060669 0.0334269 0.053462
v 0.1060669 2.309844E-08 0.053462
v 0.01330208 2.309844E-08 0.03862838
v 0.1988318 2.309844E-08 0.06829558
v 0.1988318 0.0334269 0.06829558
v 0.2915965 2.309844E-08 0.08312918
v 0.2915965 0.0334269 0.08312918
v 0.3843614 2.309844E-08 0.09796283
v 0.3843614 0.0334269 0.09796283
v 0.4771264 2.309844E-08 0.1127964
v 0.4771264 0.0334269 0.1127964
v 0.569891 2.309844E-08 0.12763
v 0.569891 0.0334269 0.12763
v -7.022684E-08 2.309844E-08 -2.030182E-08
v 0.09909577 2.309844E-08 0.01584602
v 0.09909577 0.0334269 0.01584602
v -7.022684E-08 0.0334269 -2.030182E-08
v 0.1981918 0.0334269 0.03169201
v 0.1981918 2.309844E-08 0.03169201
v 0.2972879 0.0334269 0.04753798
v 0.2972879 2.309844E-08 0.04753798
v 0.3963837 0.0334269 0.06338395
v 0.3963837 2.309844E-08 0.06338395
v 0.4954797 0.0334269 0.07923
v 0.4954797 2.309844E-08 0.07923
v 0.5945759 0.0334269 0.09507598
v 0.5945759 2.309844E-08 0.09507598
v 0.09909577 0.1236717 0.01584602
v -7.022684E-08 0.1919511 -2.030182E-08
v -7.022684E-08 0.0334269 -2.030182E-08
v 0.5945759 0.0334269 0.09507598
v 0.4954797 0.1236717 0.07923
v 0.5945759 0.1919511 0.09507598
v 0.2972879 0.07550991 0.04753798
v 0.1981918 0.0334269 0.03169201
v 0.1981918 0.08894683 0.03169201
v 0.01330208 2.309844E-08 0.03862838
v 0.1060669 2.309844E-08 0.053462
v 0.09909577 2.309844E-08 0.01584602
v -7.022684E-08 2.309844E-08 -2.030182E-08
v 0.1981918 2.309844E-08 0.03169201
v 0.1988318 2.309844E-08 0.06829558
v 0.2972879 2.309844E-08 0.04753798
v 0.2915965 2.309844E-08 0.08312918
v 0.3963837 2.309844E-08 0.06338395
v 0.3843614 2.309844E-08 0.09796283
v 0.4954797 2.309844E-08 0.07923
v 0.4771264 2.309844E-08 0.1127964
v 0.5945759 2.309844E-08 0.09507598
v 0.569891 2.309844E-08 0.12763
v 0.569891 2.309844E-08 0.12763
v 0.569891 0.0334269 0.12763
v 0.5945759 0.0334269 0.09507598
v 0.5945759 2.309844E-08 0.09507598
v -7.022684E-08 2.309844E-08 -2.030182E-08
v -7.022684E-08 0.0334269 -2.030182E-08
v 0.01330208 0.0334269 0.03862838
v 0.01330208 2.309844E-08 0.03862838
v -7.022684E-08 0.0334269 -2.030182E-08
v -7.022684E-08 0.1919511 -2.030182E-08
v 0.01638032 0.1443467 0.01937826
v 0.01330208 0.0334269 0.03862838
v 0.569891 0.0334269 0.12763
v 0.5729692 0.1443467 0.1083799
v 0.5945759 0.1919511 0.09507598
v 0.5945759 0.0334269 0.09507598
v 0.01330208 0.0334269 0.03862838
v 0.01638032 0.1443467 0.01937826
v 0.1078194 0.0965715 0.04250326
v 0.1060669 0.0334269 0.053462
v 0.4771264 0.0334269 0.1127964
v 0.4788788 0.0965715 0.1018377
v 0.5729692 0.1443467 0.1083799
v 0.569891 0.0334269 0.12763
v 0.4954797 0.0334269 0.07923
v 0.4954797 0.1236717 0.07923
v 0.3963837 0.08894683 0.06338395
v 0.3963837 0.0334269 0.06338395
v 0.3843614 0.0334269 0.09796283
v 0.3854396 0.07227436 0.09122083
v 0.4788788 0.0965715 0.1018377
v 0.4771264 0.0334269 0.1127964
v 0.3963837 0.0334269 0.06338395
v 0.3963837 0.08894683 0.06338395
v 0.2972879 0.07550991 0.04753798
v 0.2972879 0.0334269 0.04753798
v 0.2924138 0.06287251 0.07801895
v 0.3854396 0.07227436 0.09122083
v 0.3843614 0.0334269 0.09796283
v 0.2915965 0.0334269 0.08312918
v 0.1988318 0.0334269 0.06829558
v 0.2924138 0.06287251 0.07801895
v 0.19991 0.07227436 0.06155365
v 0.1981918 0.08894683 0.03169201
v 0.09909577 0.1236717 0.01584602
v 0.09909577 0.0334269 0.01584602
v 0.1060669 0.0334269 0.053462
v 0.1078194 0.0965715 0.04250326
v 0.19991 0.07227436 0.06155365
v 0.1988318 0.0334269 0.06829558
v 0.01638032 0.1443467 0.01937826
v -7.022684E-08 0.1919511 -2.030182E-08
v 0.09909577 0.1236717 0.01584602
v 0.1078194 0.0965715 0.04250326
v 0.1078194 0.0965715 0.04250326
v 0.09909577 0.1236717 0.01584602
v 0.1981918 0.08894683 0.03169201
v 0.19991 0.07227436 0.06155365
v 0.19991 0.07227436 0.06155365
v 0.1981918 0.08894683 0.03169201
v 0.2972879 0.07550991 0.04753798
v 0.2924138 0.06287251 0.07801895
v 0.2924138 0.06287251 0.07801895
v 0.2972879 0.07550991 0.04753798
v 0.3963837 0.08894683 0.06338395
v 0.3854396 0.07227436 0.09122083
v 0.3854396 0.07227436 0.09122083
v 0.3963837 0.08894683 0.06338395
v 0.4954797 0.1236717 0.07923
v 0.4788788 0.0965715 0.1018377
v 0.4788788 0.0965715 0.1018377
v 0.4954797 0.1236717 0.07923
v 0.5945759 0.1919511 0.09507598
v 0.5729692 0.1443467 0.1083799

vn -0.1578996 0 -0.9874552
vn -0.1578993 0 -0.9874552
vn -0.1578993 0 -0.9874552
vn -0.1578996 0 -0.9874552
vn -0.1578993 0 -0.9874552
vn -0.1578993 0 -0.9874552
vn -0.1578998 0 -0.9874551
vn -0.1578998 0 -0.9874551
vn -0.1578995 0 -0.9874552
vn -0.1578995 0 -0.9874552
vn -0.1578994 0 -0.9874552
vn -0.1578994 0 -0.9874552
vn -0.1578998 0 -0.9874551
vn -0.1578998 0 -0.9874551
vn 0.1579001 0 0.9874551
vn 0.1578997 0 0.9874552
vn 0.1578997 0 0.9874552
vn 0.1579001 0 0.9874551
vn 0.1578992 0 0.9874552
vn 0.1578992 0 0.9874552
vn 0.1578993 0 0.9874552
vn 0.1578993 0 0.9874552
vn 0.1578997 0 0.9874552
vn 0.1578997 0 0.9874552
vn 0.1578989 0 0.9874553
vn 0.1578994 0 0.9874552
vn 0.1578989 0 0.9874553
vn 0.1578989 0 0.9874553
vn 0.1579003 0 0.9874551
vn 0.1579002 0 0.9874551
vn 0.1579002 0 0.9874551
vn 0.1578989 0 0.9874553
vn 0.1578989 0 0.9874553
vn 0.1578989 0 0.9874553
vn 0.1578996 0 0.9874552
vn 0.1578994 0 0.9874552
vn 0.1578994 0 0.9874552
vn 0 1 0
vn 0 1 0
vn 0 1 0
vn 0 1 0
vn 0 1 0
vn 0 1 0
vn 0 1 0
vn 0 1 0
vn 0 1 0
vn 0 1 0
vn 0 1 0
vn 0 1 0
vn 0 1 0
vn 0 1 0
vn 0.7968239 0 -0.6042115
vn 0.7968239 0 -0.6042115
vn 0.7968239 0 -0.6042115
vn 0.7968239 0 -0.6042115
vn -0.9455085 0 -0.3255973
vn -0.9455085 0 -0.3255973
vn -0.9455085 0 -0.3255973
vn -0.9455085 0 -0.3255973
vn -0.8740363 -0.04455127 -0.4838138
vn -0.8740363 -0.04455127 -0.4838138
vn -0.8740363 -0.04455127 -0.4838138
vn -0.8740363 -0.04455127 -0.4838138
vn 0.6795767 -0.04455062 -0.7322505
vn 0.6795766 -0.04455062 -0.7322505
vn 0.6795767 -0.04455062 -0.7322505
vn 0.6795767 -0.04455062 -0.7322505
vn -0.155516 -0.1731016 -0.9725485
vn -0.1555161 -0.1731016 -0.9725485
vn -0.1555159 -0.1731014 -0.9725485
vn -0.1555159 -0.1731014 -0.9725485
vn -0.1555159 -0.1731013 -0.9725485
vn -0.1555159 -0.1731012 -0.9725485
vn -0.1555161 -0.1731011 -0.9725486
vn -0.1555161 -0.173101 -0.9725486
vn 0.1579 0 0.9874551
vn 0.1579 0 0.9874551
vn 0.1579 0 0.9874551
vn 0.1579 0 0.9874551
vn -0.1555156 -0.1731019 -0.9725485
vn -0.1555156 -0.1731019 -0.9725485
vn -0.1555159 -0.1731012 -0.9725485
vn -0.1555159 -0.1731013 -0.9725485
vn 0.1578998 0 0.9874552
vn 0.1578998 0 0.9874551
vn 0.1578996 0 0.9874552
vn 0.1578996 0 0.9874552
vn -0.155516 -0.1731015 -0.9725485
vn -0.1555159 -0.1731017 -0.9725485
vn -0.1555159 -0.1731017 -0.9725485
vn -0.155516 -0.1731015 -0.9725485
vn -0.1555161 -0.1731012 -0.9725485
vn -0.155516 -0.1731015 -0.9725485
vn -0.155516 -0.1731012 -0.9725485
vn 0.1578993 0 0.9874552
vn 0.1578993 0 0.9874552
vn 0.1578993 0 0.9874552
vn -0.1555159 -0.1731014 -0.9725485
vn -0.1555159 -0.1731014 -0.9725485
vn -0.1555156 -0.1731009 -0.9725487
vn -0.1555156 -0.1731008 -0.9725487
vn 0.1742023 -0.5583652 -0.8110991
vn 0.1742023 -0.5583653 -0.8110991
vn 0.1653996 -0.6343522 -0.7551425
vn 0.1503588 -0.732365 -0.6641037
vn 0.1503588 -0.732365 -0.6641037
vn 0.1653996 -0.6343522 -0.7551425
vn 0.09590134 -0.8415533 -0.5315929
vn 0.07587035 -0.8613055 -0.5023908
vn 0.07587035 -0.8613055 -0.5023908
vn 0.09590134 -0.8415533 -0.5315929
vn -0.06782988 -0.9030312 -0.424186
vn -0.06782972 -0.9030312 -0.4241859
vn -0.06782972 -0.9030312 -0.4241859
vn -0.06782988 -0.9030312 -0.424186
vn -0.2568899 -0.8415524 -0.475181
vn -0.2287524 -0.8613045 -0.4536816
vn -0.2287524 -0.8613045 -0.4536816
vn -0.2568899 -0.8415524 -0.475181
vn -0.392633 -0.6343524 -0.6659101
vn -0.349954 -0.7323627 -0.5841036
vn -0.349954 -0.7323627 -0.5841036
vn -0.392633 -0.6343524 -0.6659101
vn -0.418446 -0.558366 -0.7163311
vn -0.418446 -0.5583661 -0.7163312

vt 0.375 0.04353568
vt 0.4166667 0.04353568
vt 0.4166667 0
vt 0.375 0
vt 0.4583333 0
vt 0.4583333 0.04353568
vt 0.5 0
vt 0.5 0.04353568
vt 0.5416667 0
vt 0.5416667 0.04353568
vt 0.5833333 0
vt 0.5833333 0.04353568
vt 0.625 0
vt 0.625 0.04353568
vt 0.375 0.75
vt 0.4166667 0.75
vt 0.4166667 0.7064644
vt 0.375 0.7064644
vt 0.4583333 0.7064644
vt 0.4583333 0.75
vt 0.5 0.7064644
vt 0.5 0.75
vt 0.5416667 0.7064644
vt 0.5416667 0.75
vt 0.5833333 0.7064644
vt 0.5833333 0.75
vt 0.625 0.7064644
vt 0.625 0.75
vt 0.4166667 0.5889281
vt 0.1429163 0.125
vt 0.375 0.7064644
vt 0.625 0.7064644
vt 0.1608344 1
vt 0.4375009 0.125
vt 0.5 0.6516548
vt 0.4583333 0.7064644
vt 0.8172783 0
vt 0.375 1
vt 0.4166667 1
vt 0.4166667 0.75
vt 0.375 0.75
vt 0.4583333 0.75
vt 0.4583333 1
vt 0.5 0.75
vt 0.5 1
vt 0.5416667 0.75
vt 0.5416667 1
vt 0.5833333 0.75
vt 0.5833333 1
vt 0.625 0.75
vt 0.625 1
vt 0.625 0
vt 0.625 0.04353568
vt 0.875 0.04353568
vt 0.875 0
vt 0.125 0
vt 0.125 0.04353568
vt 0.375 0.04353568
vt 0.375 0
vt 0.125 0.04353568
vt 0.1429163 0.125
vt 0.1875 0.625
vt 0.375 0.04353568
vt 0.625 0.04353568
vt 0.4184636 0.625
vt 0.4375009 0.125
vt 0.875 0.04353568
vt 0.375 0.04353568
vt 0.1875 0.625
vt 0.2119271 0
vt 0.4166667 0.04353568
vt 0.5833333 0.04353568
vt 0.5833333 0.1610719
vt 0.4184636 0.625
vt 0.625 0.04353568
vt 0.5833333 0.7064644
vt 0 0
vt 1 0.3162475
vt 0.5416667 0.7064644
vt 0.5416667 0.04353568
vt 0.5416667 0.1158457
vt 0.4167107 1
vt 0.5833333 0.04353568
vt 0.5416667 0.7064644
vt 0 0
vt 1 0.8172782
vt 0.5 0.7064644
vt 0.5 0.09834529
vt 1 0.9285865
vt 0.5416667 0.04353568
vt 0.5 0.04353568
vt 0.4583333 0.04353568
vt 1 0
vt 0 0.9285864
vt 0.4583333 0.6341544
vt 0.3162475 0
vt 0.4166667 0.7064644
vt 0.4166667 0.04353568
vt 0 1
vt 0.4167106 0
vt 0.4583333 0.04353568
vt 0.1875 0.625
vt 0.1429163 0.125
vt 0 1
vt 0.2119271 0
vt 0 1
vt 0.3162475 0
vt 0 1
vt 0.4167106 0
vt 0 0.9285864
vt 0.8172783 0
vt 0 1
vt 1 0
vt 0 0
vt 1 0.8172782
vt 0 0
vt 1 0.9285865
vt 0 0
vt 1 0.3162475
vt 0 0
vt 0.4167107 1
vt 0 0
vt 0.1608344 1
vt 0.4375009 0.125
vt 0.4184636 0.625

usemtl Oro_M
usemap Oro_M
f 1/1/1 2/2/2 3/3/3
f 1/1/1 3/3/3 4/4/4
f 2/2/2 5/5/5 3/3/3
f 2/2/2 6/6/6 5/5/5
f 6/6/6 7/7/7 5/5/5
f 6/6/6 8/8/8 7/7/7
f 8/8/8 9/9/9 7/7/7
f 8/8/8 10/10/10 9/9/9
f 10/10/10 11/11/11 9/9/9
f 10/10/10 12/12/12 11/11/11
f 12/12/12 13/13/13 11/11/11
f 12/12/12 14/14/14 13/13/13
f 15/15/15 16/16/16 17/17/17
f 15/15/15 17/17/17 18/18/18
f 16/16/16 19/19/19 17/17/17
f 16/16/16 20/20/20 19/19/19
f 20/20/20 21/21/21 19/19/19
f 20/20/20 22/22/22 21/21/21
f 22/22/22 23/23/23 21/21/21
f 22/22/22 24/24/24 23/23/23
f 24/24/24 25/25/25 23/23/23
f 24/24/24 26/26/26 25/25/25
f 26/26/26 27/27/27 25/25/25
f 26/26/26 28/28/28 27/27/27
f 17/17/17 29/29/29 30/30/30
f 17/17/17 30/30/30 31/31/31
f 32/32/32 33/33/33 25/25/25
f 32/32/32 34/34/34 33/33/33
f 35/35/35 36/36/36 21/21/21
f 35/35/35 37/37/37 36/36/36
f 38/38/38 39/39/39 40/40/40
f 38/38/38 40/40/40 41/41/41
f 39/39/39 42/42/42 40/40/40
f 39/39/39 43/43/43 42/42/42
f 43/43/43 44/44/44 42/42/42
f 43/43/43 45/45/45 44/44/44
f 45/45/45 46/46/46 44/44/44
f 45/45/45 47/47/47 46/46/46
f 47/47/47 48/48/48 46/46/46
f 47/47/47 49/49/49 48/48/48
f 49/49/49 50/50/50 48/48/48
f 49/49/49 51/51/51 50/50/50
f 52/52/52 53/53/53 54/54/54
f 52/52/52 54/54/54 55/55/55
f 56/56/56 57/57/57 58/58/58
f 56/56/56 58/58/58 59/59/59
f 60/60/60 61/61/61 62/62/62
f 60/60/60 62/62/62 63/63/63
f 64/64/64 65/65/65 66/66/66
f 64/64/64 66/66/66 67/67/67
f 68/68/68 69/69/69 70/70/70
f 68/68/68 70/70/70 71/71/71
f 72/72/72 73/73/73 74/74/74
f 72/72/72 74/74/74 75/75/75
f 76/76/76 77/77/77 78/78/78
f 76/76/76 78/78/78 79/79/79
f 80/80/80 81/81/81 82/82/82
f 80/80/80 82/82/82 83/83/83
f 84/84/84 85/85/85 86/86/86
f 84/84/84 86/86/86 87/87/87
f 88/88/88 89/89/89 90/90/90
f 88/88/88 90/90/90 91/91/91
f 92/92/92 93/93/93 91/91/91
f 92/92/92 94/94/94 93/93/93
f 19/19/19 95/95/95 96/96/96
f 19/19/19 96/96/96 97/97/97
f 98/98/98 99/99/99 100/100/100
f 98/98/98 100/100/100 101/101/101
f 102/102/102 103/103/103 104/104/104
f 102/102/102 104/104/104 105/105/105
f 106/106/106 107/107/107 108/108/108
f 106/106/106 108/108/108 109/109/109
f 110/110/110 111/111/111 112/112/112
f 110/110/110 112/112/112 113/113/113
f 114/114/114 115/115/115 116/116/116
f 114/114/114 116/116/116 117/117/117
f 118/118/118 119/119/119 120/120/120
f 118/118/118 120/120/120 121/121/121
f 122/122/122 123/123/123 124/124/124
f 122/122/122 124/124/124 125/125/125
