g pCube22
v -0.2839859 0.06254864 -0.02518662
v -0.2839859 0.09597552 -0.02518662
v -0.191221 0.09597552 -0.010353
v -0.191221 0.06254864 -0.010353
v -0.09845615 0.09597552 0.004480571
v -0.09845615 0.06254864 0.004480571
v -0.005691414 0.09597552 0.01931417
v -0.005691414 0.06254864 0.01931417
v 0.08707348 0.09597552 0.03414783
v 0.08707348 0.06254864 0.03414783
v 0.1798385 0.09597552 0.04898142
v 0.1798385 0.06254864 0.04898142
v 0.2726031 0.09597552 0.06381502
v 0.2726031 0.06254864 0.06381502
v -0.297288 0.09597552 -0.06381502
v -0.297288 0.06254864 -0.06381502
v -0.1981922 0.06254864 -0.04796898
v -0.1981922 0.09597552 -0.04796898
v -0.0990961 0.06254864 -0.03212299
v -0.0990961 0.09597552 -0.03212299
v -3.814697E-08 0.06254864 -0.01627702
v -3.814697E-08 0.09597552 -0.01627702
v 0.09909572 0.06254864 -0.0004310512
v 0.09909572 0.09597552 -0.0004310512
v 0.1981918 0.06254864 0.015415
v 0.1981918 0.09597552 0.015415
v 0.297288 0.06254864 0.03126097
v 0.297288 0.09597552 0.03126097
v -0.297288 0.06254864 -0.06381502
v -0.297288 -0.09597552 -0.06381502
v -0.1981922 -0.02769618 -0.04796898
v 0.297288 0.06254864 0.03126097
v 0.1981918 -0.02769618 0.015415
v 0.297288 -0.09597552 0.03126097
v -3.814697E-08 0.02046563 -0.01627702
v -0.0990961 0.06254864 -0.03212299
v -0.0990961 0.007028704 -0.03212299
v -0.2839859 0.09597552 -0.02518662
v -0.297288 0.09597552 -0.06381502
v -0.1981922 0.09597552 -0.04796898
v -0.191221 0.09597552 -0.010353
v -0.0990961 0.09597552 -0.03212299
v -0.09845615 0.09597552 0.004480571
v -3.814697E-08 0.09597552 -0.01627702
v -0.005691414 0.09597552 0.01931417
v 0.09909572 0.09597552 -0.0004310512
v 0.08707348 0.09597552 0.03414783
v 0.1981918 0.09597552 0.015415
v 0.1798385 0.09597552 0.04898142
v 0.297288 0.09597552 0.03126097
v 0.2726031 0.09597552 0.06381502
v 0.2726031 0.09597552 0.06381502
v 0.297288 0.09597552 0.03126097
v 0.297288 0.06254864 0.03126097
v 0.2726031 0.06254864 0.06381502
v -0.297288 0.09597552 -0.06381502
v -0.2839859 0.09597552 -0.02518662
v -0.2839859 0.06254864 -0.02518662
v -0.297288 0.06254864 -0.06381502
v -0.297288 0.06254864 -0.06381502
v -0.2839859 0.06254864 -0.02518662
v -0.2809076 -0.04837115 -0.04443674
v -0.297288 -0.09597552 -0.06381502
v 0.2726031 0.06254864 0.06381502
v 0.297288 0.06254864 0.03126097
v 0.297288 -0.09597552 0.03126097
v 0.2756813 -0.04837115 0.04456494
v -0.2839859 0.06254864 -0.02518662
v -0.191221 0.06254864 -0.010353
v -0.1894686 -0.0005959606 -0.02131174
v -0.2809076 -0.04837115 -0.04443674
v 0.1798385 0.06254864 0.04898142
v 0.2726031 0.06254864 0.06381502
v 0.2756813 -0.04837115 0.04456494
v 0.1815908 -0.0005959606 0.03802271
v 0.1981918 0.06254864 0.015415
v 0.09909572 0.06254864 -0.0004310512
v 0.09909572 0.007028704 -0.0004310512
v 0.1981918 -0.02769618 0.015415
v 0.08707348 0.06254864 0.03414783
v 0.1798385 0.06254864 0.04898142
v 0.1815908 -0.0005959606 0.03802271
v 0.08815166 0.02370118 0.02740583
v 0.09909572 0.06254864 -0.0004310512
v -3.814697E-08 0.06254864 -0.01627702
v -3.814697E-08 0.02046563 -0.01627702
v 0.09909572 0.007028704 -0.0004310512
v -0.004874153 0.03310304 0.01420395
v -0.005691414 0.06254864 0.01931417
v 0.08707348 0.06254864 0.03414783
v 0.08815166 0.02370118 0.02740583
v -0.09845615 0.06254864 0.004480571
v -0.004874153 0.03310304 0.01420395
v -0.09737796 0.02370118 -0.002261352
v -0.1981922 0.06254864 -0.04796898
v -0.1981922 -0.02769618 -0.04796898
v -0.0990961 0.007028704 -0.03212299
v -0.191221 0.06254864 -0.010353
v -0.09845615 0.06254864 0.004480571
v -0.09737796 0.02370118 -0.002261352
v -0.1894686 -0.0005959606 -0.02131174
v -0.2809076 -0.04837115 -0.04443674
v -0.1894686 -0.0005959606 -0.02131174
v -0.1981922 -0.02769618 -0.04796898
v -0.297288 -0.09597552 -0.06381502
v -0.1894686 -0.0005959606 -0.02131174
v -0.09737796 0.02370118 -0.002261352
v -0.0990961 0.007028704 -0.03212299
v -0.1981922 -0.02769618 -0.04796898
v -0.09737796 0.02370118 -0.002261352
v -0.004874153 0.03310304 0.01420395
v -3.814697E-08 0.02046563 -0.01627702
v -0.0990961 0.007028704 -0.03212299
v -0.004874153 0.03310304 0.01420395
v 0.08815166 0.02370118 0.02740583
v 0.09909572 0.007028704 -0.0004310512
v -3.814697E-08 0.02046563 -0.01627702
v 0.08815166 0.02370118 0.02740583
v 0.1815908 -0.0005959606 0.03802271
v 0.1981918 -0.02769618 0.015415
v 0.09909572 0.007028704 -0.0004310512
v 0.1815908 -0.0005959606 0.03802271
v 0.2756813 -0.04837115 0.04456494
v 0.297288 -0.09597552 0.03126097
v 0.1981918 -0.02769618 0.015415

vn -0.1578995 0 -0.9874552
vn -0.1578995 0 -0.9874552
vn -0.1578993 0 -0.9874552
vn -0.1578993 0 -0.9874552
vn -0.1578993 0 -0.9874552
vn -0.1578993 0 -0.9874552
vn -0.1578997 0 -0.9874552
vn -0.1578997 0 -0.9874552
vn -0.1578995 0 -0.9874552
vn -0.1578995 0 -0.9874552
vn -0.1578994 0 -0.9874552
vn -0.1578994 0 -0.9874552
vn -0.1578998 0 -0.9874551
vn -0.1578998 0 -0.9874551
vn 0.1579001 0 0.9874551
vn 0.1579001 0 0.9874551
vn 0.1578997 0 0.9874552
vn 0.1578997 0 0.9874552
vn 0.1578992 0 0.9874552
vn 0.1578992 0 0.9874552
vn 0.1578994 0 0.9874552
vn 0.1578994 0 0.9874552
vn 0.1578998 0 0.9874551
vn 0.1578998 0 0.9874551
vn 0.1578989 0 0.9874553
vn 0.1578994 0 0.9874552
vn 0.1578989 0 0.9874553
vn 0.1578989 0 0.9874553
vn 0.1579002 0 0.9874551
vn 0.1579002 0 0.9874551
vn 0.1579002 0 0.9874551
vn 0.1578989 0 0.9874553
vn 0.1578989 0 0.9874553
vn 0.1578989 0 0.9874553
vn 0.1578996 0 0.9874552
vn 0.1578994 0 0.9874552
vn 0.1578994 0 0.9874552
vn 0 -1 0
vn 0 -1 0
vn 0 -1 0
vn 0 -1 0
vn 0 -1 4.021625E-07
vn 0 -1 4.761825E-07
vn 0 -1 5.208788E-07
vn 0 -1 5.208801E-07
vn 0 -1 0
vn 0 -1 0
vn 0 -1 -2.17884E-07
vn 0 -1 -2.178838E-07
vn 0 -1 -2.178843E-07
vn 0 -1 -2.178843E-07
vn 0.7968239 0 -0.6042115
vn 0.7968239 0 -0.6042115
vn 0.7968239 0 -0.6042115
vn 0.7968239 0 -0.6042115
vn -0.9455087 0 -0.325597
vn -0.9455087 0 -0.325597
vn -0.9455087 0 -0.325597
vn -0.9455087 0 -0.325597
vn -0.8740363 0.04455163 -0.4838138
vn -0.8740363 0.04455163 -0.4838138
vn -0.8740362 0.04455163 -0.4838138
vn -0.8740362 0.04455163 -0.4838139
vn 0.6795766 0.04455063 -0.7322506
vn 0.6795766 0.04455063 -0.7322506
vn 0.6795766 0.04455063 -0.7322506
vn 0.6795765 0.04455063 -0.7322506
vn -0.1555161 0.1731016 -0.9725485
vn -0.1555159 0.1731014 -0.9725485
vn -0.1555159 0.1731015 -0.9725485
vn -0.1555161 0.1731017 -0.9725485
vn -0.1555159 0.1731015 -0.9725485
vn -0.155516 0.1731012 -0.9725485
vn -0.155516 0.1731012 -0.9725485
vn -0.1555159 0.1731014 -0.9725485
vn 0.1579 0 0.9874551
vn 0.1579 0 0.9874551
vn 0.1579 0 0.9874551
vn 0.1579 0 0.9874551
vn -0.1555156 0.1731019 -0.9725485
vn -0.1555159 0.1731015 -0.9725485
vn -0.1555159 0.1731014 -0.9725485
vn -0.1555156 0.1731019 -0.9725485
vn 0.1578998 0 0.9874552
vn 0.1578996 0 0.9874552
vn 0.1578996 0 0.9874552
vn 0.1578998 0 0.9874551
vn -0.1555161 0.1731011 -0.9725486
vn -0.1555161 0.1731011 -0.9725486
vn -0.1555161 0.1731017 -0.9725485
vn -0.1555161 0.1731016 -0.9725485
vn -0.155516 0.1731005 -0.9725487
vn -0.1555161 0.1731011 -0.9725486
vn -0.155516 0.1731005 -0.9725487
vn 0.1578992 0 0.9874552
vn 0.1578992 0 0.9874552
vn 0.1578992 0 0.9874552
vn -0.1555159 0.1731014 -0.9725485
vn -0.1555156 0.1731009 -0.9725487
vn -0.1555156 0.1731009 -0.9725487
vn -0.1555159 0.1731015 -0.9725485
vn 0.1742024 0.558365 -0.8110993
vn 0.1503588 0.732365 -0.6641037
vn 0.1653996 0.6343521 -0.7551426
vn 0.1742024 0.558365 -0.8110992
vn 0.1503588 0.732365 -0.6641037
vn 0.07587032 0.8613057 -0.5023904
vn 0.09590133 0.8415534 -0.5315927
vn 0.1653996 0.6343521 -0.7551426
vn 0.07587032 0.8613057 -0.5023904
vn -0.06782969 0.9030312 -0.4241861
vn -0.06782985 0.9030312 -0.4241861
vn 0.09590133 0.8415534 -0.5315927
vn -0.06782969 0.9030312 -0.4241861
vn -0.2287524 0.8613043 -0.4536818
vn -0.25689 0.8415524 -0.475181
vn -0.06782985 0.9030312 -0.4241861
vn -0.2287524 0.8613043 -0.4536818
vn -0.3499542 0.7323631 -0.5841029
vn -0.3926334 0.6343529 -0.6659095
vn -0.25689 0.8415524 -0.475181
vn -0.3499542 0.7323631 -0.5841029
vn -0.4184465 0.5583665 -0.7163304
vn -0.4184465 0.5583665 -0.7163305
vn -0.3926334 0.6343529 -0.6659095

vt 0.375 0.04353568
vt 0.375 0
vt 0.4166667 0
vt 0.4166667 0.04353568
vt 0.4583333 0
vt 0.4583333 0.04353568
vt 0.5 0
vt 0.5 0.04353568
vt 0.5416667 0
vt 0.5416667 0.04353568
vt 0.5833333 0
vt 0.5833333 0.04353568
vt 0.625 0
vt 0.625 0.04353568
vt 0.375 0.75
vt 0.375 0.7064644
vt 0.4166667 0.7064644
vt 0.4166667 0.75
vt 0.4583333 0.7064644
vt 0.4583333 0.75
vt 0.5 0.7064644
vt 0.5 0.75
vt 0.5416667 0.7064644
vt 0.5416667 0.75
vt 0.5833333 0.7064644
vt 0.5833333 0.75
vt 0.625 0.7064644
vt 0.625 0.75
vt 0.375 0.7064644
vt 0.1429163 0.125
vt 0.4166667 0.5889281
vt 0.625 0.7064644
vt 0.1608344 1
vt 0.4375009 0.125
vt 0.5 0.6516548
vt 0.4583333 0.7064644
vt 0.8172783 0
vt 0.375 1
vt 0.375 0.75
vt 0.4166667 0.75
vt 0.4166667 1
vt 0.4583333 0.75
vt 0.4583333 1
vt 0.5 0.75
vt 0.5 1
vt 0.5416667 0.75
vt 0.5416667 1
vt 0.5833333 0.75
vt 0.5833333 1
vt 0.625 0.75
vt 0.625 1
vt 0.625 0
vt 0.875 0
vt 0.875 0.04353568
vt 0.625 0.04353568
vt 0.125 0
vt 0.375 0
vt 0.375 0.04353568
vt 0.125 0.04353568
vt 0.125 0.04353568
vt 0.375 0.04353568
vt 0.1875 0.625
vt 0.1429163 0.125
vt 0.625 0.04353568
vt 0.875 0.04353568
vt 0.4375009 0.125
vt 0.4184636 0.625
vt 0.375 0.04353568
vt 0.4166667 0.04353568
vt 0.2119271 0
vt 0.1875 0.625
vt 0.5833333 0.04353568
vt 0.625 0.04353568
vt 0.4184636 0.625
vt 0.5833333 0.1610719
vt 0.5833333 0.7064644
vt 0.5416667 0.7064644
vt 1 0.3162475
vt 0 0
vt 0.5416667 0.04353568
vt 0.5833333 0.04353568
vt 0.4167107 1
vt 0.5416667 0.1158457
vt 0.5416667 0.7064644
vt 0.5 0.7064644
vt 1 0.8172782
vt 0 0
vt 0.5 0.09834529
vt 0.5 0.04353568
vt 0.5416667 0.04353568
vt 1 0.9285865
vt 0.4583333 0.04353568
vt 1 0
vt 0 0.9285864
vt 0.4166667 0.7064644
vt 0.3162475 0
vt 0.4583333 0.6341544
vt 0.4166667 0.04353568
vt 0.4583333 0.04353568
vt 0.4167106 0
vt 0 1
vt 0.1875 0.625
vt 0.2119271 0
vt 0 1
vt 0.1429163 0.125
vt 0 1
vt 0.4167106 0
vt 0 1
vt 0.3162475 0
vt 0 0.9285864
vt 1 0
vt 0 1
vt 0.8172783 0
vt 0 0
vt 1 0.9285865
vt 0 0
vt 1 0.8172782
vt 0 0
vt 0.4167107 1
vt 0 0
vt 1 0.3162475
vt 0 0
vt 0.4184636 0.625
vt 0.4375009 0.125
vt 0.1608344 1

usemtl Oro_M
usemap Oro_M
f 1/1/1 2/2/2 3/3/3
f 1/1/1 3/3/3 4/4/4
f 4/4/4 3/3/3 5/5/5
f 4/4/4 5/5/5 6/6/6
f 6/6/6 5/5/5 7/7/7
f 6/6/6 7/7/7 8/8/8
f 8/8/8 7/7/7 9/9/9
f 8/8/8 9/9/9 10/10/10
f 10/10/10 9/9/9 11/11/11
f 10/10/10 11/11/11 12/12/12
f 12/12/12 11/11/11 13/13/13
f 12/12/12 13/13/13 14/14/14
f 15/15/15 16/16/16 17/17/17
f 15/15/15 17/17/17 18/18/18
f 18/18/18 17/17/17 19/19/19
f 18/18/18 19/19/19 20/20/20
f 20/20/20 19/19/19 21/21/21
f 20/20/20 21/21/21 22/22/22
f 22/22/22 21/21/21 23/23/23
f 22/22/22 23/23/23 24/24/24
f 24/24/24 23/23/23 25/25/25
f 24/24/24 25/25/25 26/26/26
f 26/26/26 25/25/25 27/27/27
f 26/26/26 27/27/27 28/28/28
f 17/17/17 29/29/29 30/30/30
f 17/17/17 30/30/30 31/31/31
f 32/32/32 25/25/25 33/33/33
f 32/32/32 33/33/33 34/34/34
f 35/35/35 21/21/21 36/36/36
f 35/35/35 36/36/36 37/37/37
f 38/38/38 39/39/39 40/40/40
f 38/38/38 40/40/40 41/41/41
f 41/41/41 40/40/40 42/42/42
f 41/41/41 42/42/42 43/43/43
f 43/43/43 42/42/42 44/44/44
f 43/43/43 44/44/44 45/45/45
f 45/45/45 44/44/44 46/46/46
f 45/45/45 46/46/46 47/47/47
f 47/47/47 46/46/46 48/48/48
f 47/47/47 48/48/48 49/49/49
f 49/49/49 48/48/48 50/50/50
f 49/49/49 50/50/50 51/51/51
f 52/52/52 53/53/53 54/54/54
f 52/52/52 54/54/54 55/55/55
f 56/56/56 57/57/57 58/58/58
f 56/56/56 58/58/58 59/59/59
f 60/60/60 61/61/61 62/62/62
f 60/60/60 62/62/62 63/63/63
f 64/64/64 65/65/65 66/66/66
f 64/64/64 66/66/66 67/67/67
f 68/68/68 69/69/69 70/70/70
f 68/68/68 70/70/70 71/71/71
f 72/72/72 73/73/73 74/74/74
f 72/72/72 74/74/74 75/75/75
f 76/76/76 77/77/77 78/78/78
f 76/76/76 78/78/78 79/79/79
f 80/80/80 81/81/81 82/82/82
f 80/80/80 82/82/82 83/83/83
f 84/84/84 85/85/85 86/86/86
f 84/84/84 86/86/86 87/87/87
f 88/88/88 89/89/89 90/90/90
f 88/88/88 90/90/90 91/91/91
f 92/92/92 89/89/89 93/93/93
f 92/92/92 93/93/93 94/94/94
f 19/19/19 95/95/95 96/96/96
f 19/19/19 96/96/96 97/97/97
f 98/98/98 99/99/99 100/100/100
f 98/98/98 100/100/100 101/101/101
f 102/102/102 103/103/103 104/104/104
f 102/102/102 104/104/104 105/105/105
f 106/106/106 107/107/107 108/108/108
f 106/106/106 108/108/108 109/109/109
f 110/110/110 111/111/111 112/112/112
f 110/110/110 112/112/112 113/113/113
f 114/114/114 115/115/115 116/116/116
f 114/114/114 116/116/116 117/117/117
f 118/118/118 119/119/119 120/120/120
f 118/118/118 120/120/120 121/121/121
f 122/122/122 123/123/123 124/124/124
f 122/122/122 124/124/124 125/125/125
